<?xml version="1.0" encoding="utf-8"?>
<!-- Generator: Adobe Illustrator 23.0.2, SVG Export Plug-In . SVG Version: 6.00 Build 0)  -->
<svg version="1.1" id="Calque_1" xmlns="http://www.w3.org/2000/svg" xmlns:xlink="http://www.w3.org/1999/xlink" x="0px" y="0px"
	 viewBox="0 0 64 62.1" style="enable-background:new 0 0 64 62.1;" xml:space="preserve">
<style type="text/css">
	.st0{fill:#333366;}
</style>
<title>Artboard 6</title>
<path class="st0" d="M33.2,33.1L7,35.6l-6.9,22c-0.6,1.8,0.4,3.7,2.2,4.3c0.8,0.3,1.7,0.2,2.5-0.2L62.2,34c1.6-0.8,2.3-2.7,1.5-4.4
	c-0.3-0.7-0.8-1.2-1.5-1.5L4.9,0.3C3.3-0.5,1.2,0.2,0.4,1.9C0,2.7-0.1,3.6,0.2,4.4l6.9,22L33.2,29c1.1,0.1,2,1.1,1.8,2.3
	C34.9,32.2,34.1,33,33.2,33.1L33.2,33.1z"/>
</svg>
